<svg id="Calque_1" data-name="Calque 1" xmlns="http://www.w3.org/2000/svg" viewBox="0 0 1046.53 283.46"><defs><style>.cls-1{fill:#fff;}.cls-2{fill:none;stroke:#fff;stroke-miterlimit:10;stroke-width:7px;}</style></defs><path class="cls-1" d="M183.62,49.94v91.7q0,46.94-23.6,71.34T91.91,237.39q-44.49,0-68.1-24.41T.21,141.64V49.94H64.4v94.4q0,16.46,7.15,25.22t20.36,8.76q13.22,0,20.37-8.76t7.15-25.22V49.94Z" transform="translate(-0.21 0.09)"/><path class="cls-1" d="M177.79,233.35V141.64q0-46.93,23.6-71.34T269.5,45.89q44.51,0,68.1,24.41t23.6,71.34v91.71H297V138.94q0-16.45-7.15-25.21T269.5,105q-13.22,0-20.37,8.77T242,138.94v94.41Z" transform="translate(-0.21 0.09)"/><path class="cls-2" d="M438.2,49.94V233.35H375.08V49.94Z" transform="translate(-0.21 0.09)"/><path class="cls-2" d="M540.15,45.89A119.83,119.83,0,0,1,590.32,57a56.24,56.24,0,0,1,23.19,20q9.16,13.49,11.06,32.37H560.38q-4.05-13-16.73-13-11.32,0-11.32,7,0,5.13,8.63,7.29l34,8.89q24.54,6.48,38.57,19t14,36q0,29.94-22.93,46.39-22.4,16.45-61.77,16.45-23.73,0-43.42-7a82.51,82.51,0,0,1-20.77-11.06q-20.5-16.19-24.81-48.28h63.92q3.51,14.84,25.08,14.84,13.77,0,13.76-7,0-4.58-9.44-7l-31.29-8.63q-28.59-7.82-41.53-20.36t-12.95-34.12q0-29.4,21.58-46.13Q505.08,45.9,540.15,45.89Z" transform="translate(-0.21 0.09)"/><path class="cls-1" d="M721.25,84.65h10.37c7.47,0,12.58,4.49,12.58,11.4s-5.11,11.41-12.58,11.41H721.25Zm10.11,18.48c4.53,0,7.5-2.71,7.5-7.08s-3-7.07-7.5-7.07h-4.82v14.15Z" transform="translate(-0.21 0.09)"/><path class="cls-1" d="M767.32,103.23v4.23H749.65V84.65H766.9v4.23h-12v5h10.59V98H754.9v5.28Zm-8-20.44h-4l4.4-4.7h5.48Z" transform="translate(-0.21 0.09)"/><path class="cls-1" d="M795.35,84.65l-9.88,22.81h-5.21l-9.85-22.81h5.71l6.94,16.3,7-16.3Z" transform="translate(-0.21 0.09)"/><path class="cls-1" d="M816.92,103.23v4.23H799.25V84.65h17.24v4.23h-12v5h10.59V98H804.5v5.28Z" transform="translate(-0.21 0.09)"/><path class="cls-1" d="M822.76,84.65H828v18.51h11.44v4.3H822.76Z" transform="translate(-0.21 0.09)"/><path class="cls-1" d="M842,96.05c0-6.78,5.27-11.79,12.48-11.79s12.48,5,12.48,11.79-5.31,11.81-12.48,11.81S842,102.83,842,96.05Zm19.62,0a7.14,7.14,0,1,0-7.14,7.31A7,7,0,0,0,861.6,96.05Z" transform="translate(-0.21 0.09)"/><path class="cls-1" d="M892.18,92.93c0,5.08-3.81,8.24-9.91,8.24h-4.6v6.29h-5.28V84.65h9.88C888.37,84.65,892.18,87.81,892.18,92.93Zm-5.35,0c0-2.51-1.63-4-4.85-4h-4.31v7.92H882C885.2,96.87,886.83,95.4,886.83,92.93Z" transform="translate(-0.21 0.09)"/><path class="cls-1" d="M917.07,92.93c0,5.08-3.82,8.24-9.91,8.24h-4.6v6.29h-5.28V84.65h9.88C913.25,84.65,917.07,87.81,917.07,92.93Zm-5.35,0c0-2.51-1.63-4-4.86-4h-4.3v7.92h4.3C910.09,96.87,911.72,95.4,911.72,92.93Z" transform="translate(-0.21 0.09)"/><path class="cls-1" d="M939.84,103.23v4.23H922.17V84.65h17.24v4.23h-12v5H938V98H927.42v5.28Z" transform="translate(-0.21 0.09)"/><path class="cls-1" d="M966.45,107.46l0-13.69-6.71,11.28h-2.38l-6.68-11v13.39h-5V84.65h4.37l8.54,14.18L967,84.65h4.34l.06,22.81Z" transform="translate(-0.21 0.09)"/><path class="cls-1" d="M996,103.23v4.23H978.29V84.65h17.24v4.23h-12v5h10.6V98h-10.6v5.28Z" transform="translate(-0.21 0.09)"/><path class="cls-1" d="M1022.73,84.65v22.81h-4.34L1007,93.61v13.85h-5.22V84.65h4.37l11.34,13.85V84.65Z" transform="translate(-0.21 0.09)"/><path class="cls-1" d="M1034.16,89h-7.3v-4.3h19.88V89h-7.3v18.51h-5.28Z" transform="translate(-0.21 0.09)"/><path class="cls-1" d="M721.25,129.52h10.37c7.47,0,12.58,4.5,12.58,11.41s-5.11,11.41-12.58,11.41H721.25ZM731.36,148c4.53,0,7.5-2.71,7.5-7.07s-3-7.08-7.5-7.08h-4.82V148Z" transform="translate(-0.21 0.09)"/><path class="cls-1" d="M767.32,148.1v4.24H749.65V129.52H766.9v4.24h-12v5h10.59v4.11H754.9v5.28Z" transform="translate(-0.21 0.09)"/><path class="cls-1" d="M781.57,150.09l1.8-4a13.42,13.42,0,0,0,7.53,2.38c3.13,0,4.4-1,4.4-2.44,0-4.27-13.27-1.34-13.27-9.82,0-3.88,3.13-7.1,9.62-7.1a15.29,15.29,0,0,1,7.92,2l-1.63,4a12.87,12.87,0,0,0-6.33-1.79c-3.13,0-4.33,1.17-4.33,2.6,0,4.21,13.26,1.31,13.26,9.68,0,3.82-3.16,7.08-9.68,7.08C787.25,152.73,783.59,151.65,781.57,150.09Z" transform="translate(-0.21 0.09)"/><path class="cls-1" d="M816.76,144.25v8.09h-5.28v-8.15l-8.83-14.67h5.61l6.09,10.14,6.1-10.14h5.18Z" transform="translate(-0.21 0.09)"/><path class="cls-1" d="M827,150.09l1.8-4a13.42,13.42,0,0,0,7.53,2.38c3.13,0,4.4-1,4.4-2.44,0-4.27-13.27-1.34-13.27-9.82,0-3.88,3.13-7.1,9.62-7.1a15.29,15.29,0,0,1,7.92,2l-1.63,4a12.87,12.87,0,0,0-6.33-1.79c-3.13,0-4.33,1.17-4.33,2.6,0,4.21,13.27,1.31,13.27,9.68,0,3.82-3.17,7.08-9.69,7.08C832.71,152.73,829.07,151.65,827,150.09Z" transform="translate(-0.21 0.09)"/><path class="cls-1" d="M856,133.82h-7.3v-4.3h19.88v4.3h-7.3v18.52H856Z" transform="translate(-0.21 0.09)"/><path class="cls-1" d="M890.4,148.1v4.24H872.73V129.52H890v4.24H878v5h10.6v4.11H878v5.28Zm-10-20.44-5.9-4.69h5.48l4.4,4.69Z" transform="translate(-0.21 0.09)"/><path class="cls-1" d="M917,152.34l0-13.69-6.72,11.27h-2.38l-6.68-11v13.4h-5V129.52h4.36l8.55,14.18,8.41-14.18h4.33l.06,22.82Z" transform="translate(-0.21 0.09)"/><path class="cls-1" d="M946.52,148.1v4.24H928.85V129.52h17.24v4.24h-12v5h10.59v4.11H934.1v5.28Z" transform="translate(-0.21 0.09)"/><path class="cls-1" d="M950.6,150.09l1.8-4a13.42,13.42,0,0,0,7.53,2.38c3.13,0,4.4-1,4.4-2.44,0-4.27-13.27-1.34-13.27-9.82,0-3.88,3.13-7.1,9.62-7.1a15.29,15.29,0,0,1,7.92,2l-1.63,4a12.84,12.84,0,0,0-6.33-1.79c-3.13,0-4.33,1.17-4.33,2.6,0,4.21,13.26,1.31,13.26,9.68,0,3.82-3.16,7.08-9.68,7.08C956.28,152.73,952.62,151.65,950.6,150.09Z" transform="translate(-0.21 0.09)"/><path class="cls-1" d="M721.25,174.39h10.37c7.47,0,12.58,4.5,12.58,11.41s-5.11,11.41-12.58,11.41H721.25Zm10.11,18.48c4.53,0,7.5-2.7,7.5-7.07s-3-7.07-7.5-7.07h-4.82v14.14Z" transform="translate(-0.21 0.09)"/><path class="cls-1" d="M754.51,175.89a7.84,7.84,0,0,1-.85,3.26l-1.89,4.69h-3.23l1.4-5.15a2.88,2.88,0,0,1-1.72-2.8,3.15,3.15,0,0,1,6.29,0Z" transform="translate(-0.21 0.09)"/><path class="cls-1" d="M760.18,174.39h5.28v22.82h-5.28Z" transform="translate(-0.21 0.09)"/><path class="cls-1" d="M793.19,174.39v22.82h-4.33l-11.38-13.85v13.85h-5.22V174.39h4.37L788,188.25V174.39Z" transform="translate(-0.21 0.09)"/><path class="cls-1" d="M805.35,178.63v6h10.57v4.24H805.35v8.31h-5.27V174.39h17.24v4.24Z" transform="translate(-0.21 0.09)"/><path class="cls-1" d="M820.56,185.8c0-6.78,5.28-11.8,12.48-11.8s12.49,5,12.49,11.8-5.31,11.8-12.49,11.8S820.56,192.58,820.56,185.8Zm19.62,0a7.14,7.14,0,1,0-7.14,7.3A7,7,0,0,0,840.18,185.8Z" transform="translate(-0.21 0.09)"/><path class="cls-1" d="M865.52,197.21l-4.4-6.36h-4.86v6.36H851V174.39h9.88c6.09,0,9.91,3.16,9.91,8.28a7.44,7.44,0,0,1-4.7,7.21l5.12,7.33Zm-5-18.52h-4.3v8h4.3c3.23,0,4.86-1.5,4.86-4S863.79,178.69,860.56,178.69Z" transform="translate(-0.21 0.09)"/><path class="cls-1" d="M897.2,197.21l0-13.69-6.72,11.28h-2.38l-6.68-11v13.4h-4.95V174.39h4.36l8.54,14.18,8.41-14.18h4.34l.06,22.82Z" transform="translate(-0.21 0.09)"/><path class="cls-1" d="M924.13,192.32H913.54l-2,4.89H906.1l10.17-22.82h5.22l10.2,22.82h-5.54Zm-1.66-4-3.62-8.74-3.62,8.74Z" transform="translate(-0.21 0.09)"/><path class="cls-1" d="M938,178.69h-7.3v-4.3h19.89v4.3h-7.3v18.52H938Z" transform="translate(-0.21 0.09)"/><path class="cls-1" d="M954.67,174.39H960v22.82h-5.28Z" transform="translate(-0.21 0.09)"/><path class="cls-1" d="M965.38,185.8c0-6.78,5.28-11.8,12.48-11.8s12.49,5,12.49,11.8-5.31,11.8-12.49,11.8S965.38,192.58,965.38,185.8Zm19.62,0a7.14,7.14,0,1,0-7.14,7.3A7,7,0,0,0,985,185.8Z" transform="translate(-0.21 0.09)"/><path class="cls-1" d="M1016.73,174.39v22.82h-4.34L1001,183.36v13.85H995.8V174.39h4.37l11.34,13.86V174.39Z" transform="translate(-0.21 0.09)"/><line class="cls-2" x1="668.62" x2="668.62" y2="283.46"/></svg>